<svg xmlns="http://www.w3.org/2000/svg" xmlns:xlink="http://www.w3.org/1999/xlink" contentStyleType="text/css" data-diagram-type="CLASS" height="1015px" preserveAspectRatio="none" style="width:639px;height:1015px;background:#FFFFFF;" version="1.1" viewBox="0 0 639 1015" width="639px" zoomAndPan="magnify"><defs/><g><!--class Usuario--><g class="entity" data-entity="Usuario" data-source-line="1" data-uid="ent0002" id="entity_Usuario"><rect fill="#F1F1F1" height="48" rx="2.5" ry="2.5" style="stroke:#181818;stroke-width:0.5;" width="85.2041" x="317.57" y="7"/><ellipse cx="332.57" cy="23" fill="#ADD1B2" rx="11" ry="11" style="stroke:#181818;stroke-width:1;"/><path d="M335.5388,28.6406 Q334.9606,28.9375 334.32,29.0781 Q333.6794,29.2344 332.9763,29.2344 Q330.4763,29.2344 329.1481,27.5938 Q327.8356,25.9375 327.8356,22.8125 Q327.8356,19.6875 329.1481,18.0313 Q330.4763,16.375 332.9763,16.375 Q333.6794,16.375 334.32,16.5313 Q334.9763,16.6875 335.5388,16.9844 L335.5388,19.7031 Q334.9138,19.125 334.32,18.8594 Q333.7263,18.5781 333.1013,18.5781 Q331.7575,18.5781 331.07,19.6563 Q330.3825,20.7188 330.3825,22.8125 Q330.3825,24.9063 331.07,25.9844 Q331.7575,27.0469 333.1013,27.0469 Q333.7263,27.0469 334.32,26.7813 Q334.9138,26.5 335.5388,25.9219 L335.5388,28.6406 Z " fill="#000000"/><text fill="#000000" font-family="sans-serif" font-size="14" lengthAdjust="spacing" textLength="53.2041" x="346.57" y="27.8467">Usuario</text><line style="stroke:#181818;stroke-width:0.5;" x1="318.57" x2="401.7741" y1="39" y2="39"/><line style="stroke:#181818;stroke-width:0.5;" x1="318.57" x2="401.7741" y1="47" y2="47"/></g><!--class Rol--><g class="entity" data-entity="Rol" data-source-line="4" data-uid="ent0003" id="entity_Rol"><rect fill="#F1F1F1" height="48" rx="2.5" ry="2.5" style="stroke:#181818;stroke-width:0.5;" width="54.1826" x="333.08" y="132"/><ellipse cx="348.08" cy="148" fill="#ADD1B2" rx="11" ry="11" style="stroke:#181818;stroke-width:1;"/><path d="M351.0488,153.6406 Q350.4706,153.9375 349.83,154.0781 Q349.1894,154.2344 348.4863,154.2344 Q345.9863,154.2344 344.6581,152.5938 Q343.3456,150.9375 343.3456,147.8125 Q343.3456,144.6875 344.6581,143.0313 Q345.9863,141.375 348.4863,141.375 Q349.1894,141.375 349.83,141.5313 Q350.4863,141.6875 351.0488,141.9844 L351.0488,144.7031 Q350.4238,144.125 349.83,143.8594 Q349.2363,143.5781 348.6113,143.5781 Q347.2675,143.5781 346.58,144.6563 Q345.8925,145.7188 345.8925,147.8125 Q345.8925,149.9063 346.58,150.9844 Q347.2675,152.0469 348.6113,152.0469 Q349.2363,152.0469 349.83,151.7813 Q350.4238,151.5 351.0488,150.9219 L351.0488,153.6406 Z " fill="#000000"/><text fill="#000000" font-family="sans-serif" font-size="14" lengthAdjust="spacing" textLength="22.1826" x="362.08" y="152.8467">Rol</text><line style="stroke:#181818;stroke-width:0.5;" x1="334.08" x2="386.2626" y1="164" y2="164"/><line style="stroke:#181818;stroke-width:0.5;" x1="334.08" x2="386.2626" y1="172" y2="172"/></g><!--class Permiso--><g class="entity" data-entity="Permiso" data-source-line="7" data-uid="ent0004" id="entity_Permiso"><rect fill="#F1F1F1" height="48" rx="2.5" ry="2.5" style="stroke:#181818;stroke-width:0.5;" width="88.1982" x="316.07" y="257"/><ellipse cx="331.07" cy="273" fill="#ADD1B2" rx="11" ry="11" style="stroke:#181818;stroke-width:1;"/><path d="M334.0388,278.6406 Q333.4606,278.9375 332.82,279.0781 Q332.1794,279.2344 331.4763,279.2344 Q328.9763,279.2344 327.6481,277.5938 Q326.3356,275.9375 326.3356,272.8125 Q326.3356,269.6875 327.6481,268.0313 Q328.9763,266.375 331.4763,266.375 Q332.1794,266.375 332.82,266.5313 Q333.4763,266.6875 334.0388,266.9844 L334.0388,269.7031 Q333.4138,269.125 332.82,268.8594 Q332.2263,268.5781 331.6013,268.5781 Q330.2575,268.5781 329.57,269.6563 Q328.8825,270.7188 328.8825,272.8125 Q328.8825,274.9063 329.57,275.9844 Q330.2575,277.0469 331.6013,277.0469 Q332.2263,277.0469 332.82,276.7813 Q333.4138,276.5 334.0388,275.9219 L334.0388,278.6406 Z " fill="#000000"/><text fill="#000000" font-family="sans-serif" font-size="14" lengthAdjust="spacing" textLength="56.1982" x="345.07" y="277.8467">Permiso</text><line style="stroke:#181818;stroke-width:0.5;" x1="317.07" x2="403.2682" y1="289" y2="289"/><line style="stroke:#181818;stroke-width:0.5;" x1="317.07" x2="403.2682" y1="297" y2="297"/></g><!--class Vista--><g class="entity" data-entity="Vista" data-source-line="10" data-uid="ent0005" id="entity_Vista"><rect fill="#F1F1F1" height="48" rx="2.5" ry="2.5" style="stroke:#181818;stroke-width:0.5;" width="66.8291" x="262.76" y="382"/><ellipse cx="277.76" cy="398" fill="#ADD1B2" rx="11" ry="11" style="stroke:#181818;stroke-width:1;"/><path d="M280.7288,403.6406 Q280.1506,403.9375 279.51,404.0781 Q278.8694,404.2344 278.1663,404.2344 Q275.6663,404.2344 274.3381,402.5938 Q273.0256,400.9375 273.0256,397.8125 Q273.0256,394.6875 274.3381,393.0313 Q275.6663,391.375 278.1663,391.375 Q278.8694,391.375 279.51,391.5313 Q280.1663,391.6875 280.7288,391.9844 L280.7288,394.7031 Q280.1038,394.125 279.51,393.8594 Q278.9163,393.5781 278.2913,393.5781 Q276.9475,393.5781 276.26,394.6563 Q275.5725,395.7188 275.5725,397.8125 Q275.5725,399.9063 276.26,400.9844 Q276.9475,402.0469 278.2913,402.0469 Q278.9163,402.0469 279.51,401.7813 Q280.1038,401.5 280.7288,400.9219 L280.7288,403.6406 Z " fill="#000000"/><text fill="#000000" font-family="sans-serif" font-size="14" lengthAdjust="spacing" textLength="34.8291" x="291.76" y="402.8467">Vista</text><line style="stroke:#181818;stroke-width:0.5;" x1="263.76" x2="328.5891" y1="414" y2="414"/><line style="stroke:#181818;stroke-width:0.5;" x1="263.76" x2="328.5891" y1="422" y2="422"/></g><!--class Tabla--><g class="entity" data-entity="Tabla" data-source-line="13" data-uid="ent0006" id="entity_Tabla"><rect fill="#F1F1F1" height="48" rx="2.5" ry="2.5" style="stroke:#181818;stroke-width:0.5;" width="70.4863" x="260.93" y="507"/><ellipse cx="275.93" cy="523" fill="#ADD1B2" rx="11" ry="11" style="stroke:#181818;stroke-width:1;"/><path d="M278.8988,528.6406 Q278.3206,528.9375 277.68,529.0781 Q277.0394,529.2344 276.3363,529.2344 Q273.8363,529.2344 272.5081,527.5938 Q271.1956,525.9375 271.1956,522.8125 Q271.1956,519.6875 272.5081,518.0313 Q273.8363,516.375 276.3363,516.375 Q277.0394,516.375 277.68,516.5313 Q278.3363,516.6875 278.8988,516.9844 L278.8988,519.7031 Q278.2738,519.125 277.68,518.8594 Q277.0863,518.5781 276.4613,518.5781 Q275.1175,518.5781 274.43,519.6563 Q273.7425,520.7188 273.7425,522.8125 Q273.7425,524.9063 274.43,525.9844 Q275.1175,527.0469 276.4613,527.0469 Q277.0863,527.0469 277.68,526.7813 Q278.2738,526.5 278.8988,525.9219 L278.8988,528.6406 Z " fill="#000000"/><text fill="#000000" font-family="sans-serif" font-size="14" lengthAdjust="spacing" textLength="38.4863" x="289.93" y="527.8467">Tabla</text><line style="stroke:#181818;stroke-width:0.5;" x1="261.93" x2="330.4163" y1="539" y2="539"/><line style="stroke:#181818;stroke-width:0.5;" x1="261.93" x2="330.4163" y1="547" y2="547"/></g><!--class Esquema--><g class="entity" data-entity="Esquema" data-source-line="16" data-uid="ent0007" id="entity_Esquema"><rect fill="#F1F1F1" height="48" rx="2.5" ry="2.5" style="stroke:#181818;stroke-width:0.5;" width="96.7295" x="184.81" y="257"/><ellipse cx="199.81" cy="273" fill="#ADD1B2" rx="11" ry="11" style="stroke:#181818;stroke-width:1;"/><path d="M202.7788,278.6406 Q202.2006,278.9375 201.56,279.0781 Q200.9194,279.2344 200.2163,279.2344 Q197.7163,279.2344 196.3881,277.5938 Q195.0756,275.9375 195.0756,272.8125 Q195.0756,269.6875 196.3881,268.0313 Q197.7163,266.375 200.2163,266.375 Q200.9194,266.375 201.56,266.5313 Q202.2163,266.6875 202.7788,266.9844 L202.7788,269.7031 Q202.1538,269.125 201.56,268.8594 Q200.9663,268.5781 200.3413,268.5781 Q198.9975,268.5781 198.31,269.6563 Q197.6225,270.7188 197.6225,272.8125 Q197.6225,274.9063 198.31,275.9844 Q198.9975,277.0469 200.3413,277.0469 Q200.9663,277.0469 201.56,276.7813 Q202.1538,276.5 202.7788,275.9219 L202.7788,278.6406 Z " fill="#000000"/><text fill="#000000" font-family="sans-serif" font-size="14" lengthAdjust="spacing" textLength="64.7295" x="213.81" y="277.8467">Esquema</text><line style="stroke:#181818;stroke-width:0.5;" x1="185.81" x2="280.5395" y1="289" y2="289"/><line style="stroke:#181818;stroke-width:0.5;" x1="185.81" x2="280.5395" y1="297" y2="297"/></g><!--class BaseDeDatos--><g class="entity" data-entity="BaseDeDatos" data-source-line="19" data-uid="ent0008" id="entity_BaseDeDatos"><rect fill="#F1F1F1" height="48" rx="2.5" ry="2.5" style="stroke:#181818;stroke-width:0.5;" width="126.1924" x="170.07" y="132"/><ellipse cx="185.07" cy="148" fill="#ADD1B2" rx="11" ry="11" style="stroke:#181818;stroke-width:1;"/><path d="M188.0388,153.6406 Q187.4606,153.9375 186.82,154.0781 Q186.1794,154.2344 185.4763,154.2344 Q182.9763,154.2344 181.6481,152.5938 Q180.3356,150.9375 180.3356,147.8125 Q180.3356,144.6875 181.6481,143.0313 Q182.9763,141.375 185.4763,141.375 Q186.1794,141.375 186.82,141.5313 Q187.4763,141.6875 188.0388,141.9844 L188.0388,144.7031 Q187.4138,144.125 186.82,143.8594 Q186.2263,143.5781 185.6013,143.5781 Q184.2575,143.5781 183.57,144.6563 Q182.8825,145.7188 182.8825,147.8125 Q182.8825,149.9063 183.57,150.9844 Q184.2575,152.0469 185.6013,152.0469 Q186.2263,152.0469 186.82,151.7813 Q187.4138,151.5 188.0388,150.9219 L188.0388,153.6406 Z " fill="#000000"/><text fill="#000000" font-family="sans-serif" font-size="14" lengthAdjust="spacing" textLength="94.1924" x="199.07" y="152.8467">BaseDeDatos</text><line style="stroke:#181818;stroke-width:0.5;" x1="171.07" x2="295.2624" y1="164" y2="164"/><line style="stroke:#181818;stroke-width:0.5;" x1="171.07" x2="295.2624" y1="172" y2="172"/></g><!--class OperacionPermiso--><g class="entity" data-entity="OperacionPermiso" data-source-line="22" data-uid="ent0009" id="entity_OperacionPermiso"><rect fill="#F1F1F1" height="48" rx="2.5" ry="2.5" style="stroke:#181818;stroke-width:0.5;" width="160.0781" x="472.13" y="257"/><ellipse cx="487.13" cy="273" fill="#ADD1B2" rx="11" ry="11" style="stroke:#181818;stroke-width:1;"/><path d="M490.0988,278.6406 Q489.5206,278.9375 488.88,279.0781 Q488.2394,279.2344 487.5363,279.2344 Q485.0363,279.2344 483.7081,277.5938 Q482.3956,275.9375 482.3956,272.8125 Q482.3956,269.6875 483.7081,268.0313 Q485.0363,266.375 487.5363,266.375 Q488.2394,266.375 488.88,266.5313 Q489.5363,266.6875 490.0988,266.9844 L490.0988,269.7031 Q489.4738,269.125 488.88,268.8594 Q488.2863,268.5781 487.6613,268.5781 Q486.3175,268.5781 485.63,269.6563 Q484.9425,270.7188 484.9425,272.8125 Q484.9425,274.9063 485.63,275.9844 Q486.3175,277.0469 487.6613,277.0469 Q488.2863,277.0469 488.88,276.7813 Q489.4738,276.5 490.0988,275.9219 L490.0988,278.6406 Z " fill="#000000"/><text fill="#000000" font-family="sans-serif" font-size="14" lengthAdjust="spacing" textLength="128.0781" x="501.13" y="277.8467">OperacionPermiso</text><line style="stroke:#181818;stroke-width:0.5;" x1="473.13" x2="631.2081" y1="289" y2="289"/><line style="stroke:#181818;stroke-width:0.5;" x1="473.13" x2="631.2081" y1="297" y2="297"/></g><!--class Trigger--><g class="entity" data-entity="Trigger" data-source-line="25" data-uid="ent0010" id="entity_Trigger"><rect fill="#F1F1F1" height="48" rx="2.5" ry="2.5" style="stroke:#181818;stroke-width:0.5;" width="82.3398" x="7" y="632"/><ellipse cx="22" cy="648" fill="#ADD1B2" rx="11" ry="11" style="stroke:#181818;stroke-width:1;"/><path d="M24.9688,653.6406 Q24.3906,653.9375 23.75,654.0781 Q23.1094,654.2344 22.4063,654.2344 Q19.9063,654.2344 18.5781,652.5938 Q17.2656,650.9375 17.2656,647.8125 Q17.2656,644.6875 18.5781,643.0313 Q19.9063,641.375 22.4063,641.375 Q23.1094,641.375 23.75,641.5313 Q24.4063,641.6875 24.9688,641.9844 L24.9688,644.7031 Q24.3438,644.125 23.75,643.8594 Q23.1563,643.5781 22.5313,643.5781 Q21.1875,643.5781 20.5,644.6563 Q19.8125,645.7188 19.8125,647.8125 Q19.8125,649.9063 20.5,650.9844 Q21.1875,652.0469 22.5313,652.0469 Q23.1563,652.0469 23.75,651.7813 Q24.3438,651.5 24.9688,650.9219 L24.9688,653.6406 Z " fill="#000000"/><text fill="#000000" font-family="sans-serif" font-size="14" lengthAdjust="spacing" textLength="50.3398" x="36" y="652.8467">Trigger</text><line style="stroke:#181818;stroke-width:0.5;" x1="8" x2="88.3398" y1="664" y2="664"/><line style="stroke:#181818;stroke-width:0.5;" x1="8" x2="88.3398" y1="672" y2="672"/></g><!--class Registro--><g class="entity" data-entity="Registro" data-source-line="28" data-uid="ent0011" id="entity_Registro"><rect fill="#F1F1F1" height="48" rx="2.5" ry="2.5" style="stroke:#181818;stroke-width:0.5;" width="90.2217" x="153.06" y="757"/><ellipse cx="168.06" cy="773" fill="#ADD1B2" rx="11" ry="11" style="stroke:#181818;stroke-width:1;"/><path d="M171.0288,778.6406 Q170.4506,778.9375 169.81,779.0781 Q169.1694,779.2344 168.4663,779.2344 Q165.9663,779.2344 164.6381,777.5938 Q163.3256,775.9375 163.3256,772.8125 Q163.3256,769.6875 164.6381,768.0313 Q165.9663,766.375 168.4663,766.375 Q169.1694,766.375 169.81,766.5313 Q170.4663,766.6875 171.0288,766.9844 L171.0288,769.7031 Q170.4038,769.125 169.81,768.8594 Q169.2163,768.5781 168.5913,768.5781 Q167.2475,768.5781 166.56,769.6563 Q165.8725,770.7188 165.8725,772.8125 Q165.8725,774.9063 166.56,775.9844 Q167.2475,777.0469 168.5913,777.0469 Q169.2163,777.0469 169.81,776.7813 Q170.4038,776.5 171.0288,775.9219 L171.0288,778.6406 Z " fill="#000000"/><text fill="#000000" font-family="sans-serif" font-size="14" lengthAdjust="spacing" textLength="58.2217" x="182.06" y="777.8467">Registro</text><line style="stroke:#181818;stroke-width:0.5;" x1="154.06" x2="242.2817" y1="789" y2="789"/><line style="stroke:#181818;stroke-width:0.5;" x1="154.06" x2="242.2817" y1="797" y2="797"/></g><!--class Atributo--><g class="entity" data-entity="Atributo" data-source-line="31" data-uid="ent0012" id="entity_Atributo"><rect fill="#F1F1F1" height="48" rx="2.5" ry="2.5" style="stroke:#181818;stroke-width:0.5;" width="88.5264" x="251.91" y="632"/><ellipse cx="266.91" cy="648" fill="#ADD1B2" rx="11" ry="11" style="stroke:#181818;stroke-width:1;"/><path d="M269.8787,653.6406 Q269.3006,653.9375 268.66,654.0781 Q268.0194,654.2344 267.3162,654.2344 Q264.8162,654.2344 263.4881,652.5938 Q262.1756,650.9375 262.1756,647.8125 Q262.1756,644.6875 263.4881,643.0313 Q264.8162,641.375 267.3162,641.375 Q268.0194,641.375 268.66,641.5313 Q269.3162,641.6875 269.8787,641.9844 L269.8787,644.7031 Q269.2537,644.125 268.66,643.8594 Q268.0662,643.5781 267.4412,643.5781 Q266.0975,643.5781 265.41,644.6563 Q264.7225,645.7188 264.7225,647.8125 Q264.7225,649.9063 265.41,650.9844 Q266.0975,652.0469 267.4412,652.0469 Q268.0662,652.0469 268.66,651.7813 Q269.2537,651.5 269.8787,650.9219 L269.8787,653.6406 Z " fill="#000000"/><text fill="#000000" font-family="sans-serif" font-size="14" lengthAdjust="spacing" textLength="56.5264" x="280.91" y="652.8467">Atributo</text><line style="stroke:#181818;stroke-width:0.5;" x1="252.91" x2="339.4364" y1="664" y2="664"/><line style="stroke:#181818;stroke-width:0.5;" x1="252.91" x2="339.4364" y1="672" y2="672"/></g><!--class TipoDeDato--><g class="entity" data-entity="TipoDeDato" data-source-line="34" data-uid="ent0013" id="entity_TipoDeDato"><rect fill="#F1F1F1" height="48" rx="2.5" ry="2.5" style="stroke:#181818;stroke-width:0.5;" width="114.7012" x="195.82" y="960"/><ellipse cx="210.82" cy="976" fill="#ADD1B2" rx="11" ry="11" style="stroke:#181818;stroke-width:1;"/><path d="M213.7888,981.6406 Q213.2106,981.9375 212.57,982.0781 Q211.9294,982.2344 211.2263,982.2344 Q208.7263,982.2344 207.3981,980.5938 Q206.0856,978.9375 206.0856,975.8125 Q206.0856,972.6875 207.3981,971.0313 Q208.7263,969.375 211.2263,969.375 Q211.9294,969.375 212.57,969.5313 Q213.2263,969.6875 213.7888,969.9844 L213.7888,972.7031 Q213.1638,972.125 212.57,971.8594 Q211.9763,971.5781 211.3513,971.5781 Q210.0075,971.5781 209.32,972.6563 Q208.6325,973.7188 208.6325,975.8125 Q208.6325,977.9063 209.32,978.9844 Q210.0075,980.0469 211.3513,980.0469 Q211.9763,980.0469 212.57,979.7813 Q213.1638,979.5 213.7888,978.9219 L213.7888,981.6406 Z " fill="#000000"/><text fill="#000000" font-family="sans-serif" font-size="14" lengthAdjust="spacing" textLength="82.7012" x="224.82" y="980.8467">TipoDeDato</text><line style="stroke:#181818;stroke-width:0.5;" x1="196.82" x2="309.5212" y1="992" y2="992"/><line style="stroke:#181818;stroke-width:0.5;" x1="196.82" x2="309.5212" y1="1000" y2="1000"/></g><!--class Constrain--><g class="entity" data-entity="Constrain" data-source-line="37" data-uid="ent0014" id="entity_Constrain"><rect fill="#F1F1F1" height="48" rx="2.5" ry="2.5" style="stroke:#181818;stroke-width:0.5;" width="99.0947" x="375.62" y="632"/><ellipse cx="390.62" cy="648" fill="#ADD1B2" rx="11" ry="11" style="stroke:#181818;stroke-width:1;"/><path d="M393.5888,653.6406 Q393.0106,653.9375 392.37,654.0781 Q391.7294,654.2344 391.0263,654.2344 Q388.5263,654.2344 387.1981,652.5938 Q385.8856,650.9375 385.8856,647.8125 Q385.8856,644.6875 387.1981,643.0313 Q388.5263,641.375 391.0263,641.375 Q391.7294,641.375 392.37,641.5313 Q393.0263,641.6875 393.5888,641.9844 L393.5888,644.7031 Q392.9638,644.125 392.37,643.8594 Q391.7763,643.5781 391.1513,643.5781 Q389.8075,643.5781 389.12,644.6563 Q388.4325,645.7188 388.4325,647.8125 Q388.4325,649.9063 389.12,650.9844 Q389.8075,652.0469 391.1513,652.0469 Q391.7763,652.0469 392.37,651.7813 Q392.9638,651.5 393.5888,650.9219 L393.5888,653.6406 Z " fill="#000000"/><text fill="#000000" font-family="sans-serif" font-size="14" lengthAdjust="spacing" textLength="67.0947" x="404.62" y="652.8467">Constrain</text><line style="stroke:#181818;stroke-width:0.5;" x1="376.62" x2="473.7147" y1="664" y2="664"/><line style="stroke:#181818;stroke-width:0.5;" x1="376.62" x2="473.7147" y1="672" y2="672"/></g><!--class ForeignKey--><g class="entity" data-entity="ForeignKey" data-source-line="40" data-uid="ent0015" id="entity_ForeignKey"><rect fill="#F1F1F1" height="48" rx="2.5" ry="2.5" style="stroke:#181818;stroke-width:0.5;" width="110.7158" x="509.81" y="632"/><ellipse cx="524.81" cy="648" fill="#ADD1B2" rx="11" ry="11" style="stroke:#181818;stroke-width:1;"/><path d="M527.7788,653.6406 Q527.2006,653.9375 526.56,654.0781 Q525.9194,654.2344 525.2163,654.2344 Q522.7163,654.2344 521.3881,652.5938 Q520.0756,650.9375 520.0756,647.8125 Q520.0756,644.6875 521.3881,643.0313 Q522.7163,641.375 525.2163,641.375 Q525.9194,641.375 526.56,641.5313 Q527.2163,641.6875 527.7788,641.9844 L527.7788,644.7031 Q527.1538,644.125 526.56,643.8594 Q525.9663,643.5781 525.3413,643.5781 Q523.9975,643.5781 523.31,644.6563 Q522.6225,645.7188 522.6225,647.8125 Q522.6225,649.9063 523.31,650.9844 Q523.9975,652.0469 525.3413,652.0469 Q525.9663,652.0469 526.56,651.7813 Q527.1538,651.5 527.7788,650.9219 L527.7788,653.6406 Z " fill="#000000"/><text fill="#000000" font-family="sans-serif" font-size="14" lengthAdjust="spacing" textLength="78.7158" x="538.81" y="652.8467">ForeignKey</text><line style="stroke:#181818;stroke-width:0.5;" x1="510.81" x2="619.5258" y1="664" y2="664"/><line style="stroke:#181818;stroke-width:0.5;" x1="510.81" x2="619.5258" y1="672" y2="672"/></g><!--class PrimaryKey--><g class="entity" data-entity="PrimaryKey" data-source-line="43" data-uid="ent0016" id="entity_PrimaryKey"><rect fill="#F1F1F1" height="48" rx="2.5" ry="2.5" style="stroke:#181818;stroke-width:0.5;" width="112.4248" x="508.96" y="757"/><ellipse cx="523.96" cy="773" fill="#ADD1B2" rx="11" ry="11" style="stroke:#181818;stroke-width:1;"/><path d="M526.9288,778.6406 Q526.3506,778.9375 525.71,779.0781 Q525.0694,779.2344 524.3663,779.2344 Q521.8663,779.2344 520.5381,777.5938 Q519.2256,775.9375 519.2256,772.8125 Q519.2256,769.6875 520.5381,768.0313 Q521.8663,766.375 524.3663,766.375 Q525.0694,766.375 525.71,766.5313 Q526.3663,766.6875 526.9288,766.9844 L526.9288,769.7031 Q526.3038,769.125 525.71,768.8594 Q525.1163,768.5781 524.4913,768.5781 Q523.1475,768.5781 522.46,769.6563 Q521.7725,770.7188 521.7725,772.8125 Q521.7725,774.9063 522.46,775.9844 Q523.1475,777.0469 524.4913,777.0469 Q525.1163,777.0469 525.71,776.7813 Q526.3038,776.5 526.9288,775.9219 L526.9288,778.6406 Z " fill="#000000"/><text fill="#000000" font-family="sans-serif" font-size="14" lengthAdjust="spacing" textLength="80.4248" x="537.96" y="777.8467">PrimaryKey</text><line style="stroke:#181818;stroke-width:0.5;" x1="509.96" x2="620.3848" y1="789" y2="789"/><line style="stroke:#181818;stroke-width:0.5;" x1="509.96" x2="620.3848" y1="797" y2="797"/></g><!--class Acciones--><g class="entity" data-entity="Acciones" data-source-line="46" data-uid="ent0017" id="entity_Acciones"><rect fill="#F1F1F1" height="48" rx="2.5" ry="2.5" style="stroke:#181818;stroke-width:0.5;" width="94.207" x="518.07" y="960"/><ellipse cx="533.07" cy="976" fill="#ADD1B2" rx="11" ry="11" style="stroke:#181818;stroke-width:1;"/><path d="M536.0387,981.6406 Q535.4606,981.9375 534.82,982.0781 Q534.1794,982.2344 533.4762,982.2344 Q530.9762,982.2344 529.6481,980.5938 Q528.3356,978.9375 528.3356,975.8125 Q528.3356,972.6875 529.6481,971.0313 Q530.9762,969.375 533.4762,969.375 Q534.1794,969.375 534.82,969.5313 Q535.4762,969.6875 536.0387,969.9844 L536.0387,972.7031 Q535.4137,972.125 534.82,971.8594 Q534.2262,971.5781 533.6012,971.5781 Q532.2575,971.5781 531.57,972.6563 Q530.8825,973.7188 530.8825,975.8125 Q530.8825,977.9063 531.57,978.9844 Q532.2575,980.0469 533.6012,980.0469 Q534.2262,980.0469 534.82,979.7813 Q535.4137,979.5 536.0387,978.9219 L536.0387,981.6406 Z " fill="#000000"/><text fill="#000000" font-family="sans-serif" font-size="14" lengthAdjust="spacing" textLength="62.207" x="547.07" y="980.8467">Acciones</text><line style="stroke:#181818;stroke-width:0.5;" x1="519.07" x2="611.277" y1="992" y2="992"/><line style="stroke:#181818;stroke-width:0.5;" x1="519.07" x2="611.277" y1="1000" y2="1000"/></g><!--reverse link Usuario to Rol--><g class="link" data-entity-1="Usuario" data-entity-2="Rol" data-source-line="49" data-uid="lnk18" id="link_Usuario_Rol"><path codeLine="49" d="M360.17,67.42 C360.17,89.31 360.17,109.8 360.17,131.66" fill="none" id="Usuario-backto-Rol" style="stroke:#181818;stroke-width:1;"/><polygon fill="none" points="360.17,55.42,356.17,61.42,360.17,67.42,364.17,61.42,360.17,55.42" style="stroke:#181818;stroke-width:1;"/><text fill="#000000" font-family="sans-serif" font-size="13" lengthAdjust="spacing" textLength="32.9443" x="361.17" y="98.0669">tiene</text></g><!--reverse link Rol to Permiso--><g class="link" data-entity-1="Rol" data-entity-2="Permiso" data-source-line="50" data-uid="lnk19" id="link_Rol_Permiso"><path codeLine="50" d="M360.17,192.42 C360.17,214.31 360.17,234.8 360.17,256.66" fill="none" id="Rol-backto-Permiso" style="stroke:#181818;stroke-width:1;"/><polygon fill="none" points="360.17,180.42,356.17,186.42,360.17,192.42,364.17,186.42,360.17,180.42" style="stroke:#181818;stroke-width:1;"/><text fill="#000000" font-family="sans-serif" font-size="13" lengthAdjust="spacing" textLength="32.9443" x="361.17" y="223.0669">tiene</text></g><!--reverse link Permiso to Vista--><g class="link" data-entity-1="Permiso" data-entity-2="Vista" data-source-line="51" data-uid="lnk20" id="link_Permiso_Vista"><path codeLine="51" d="M342.441,316.0652 C331.051,337.9552 319.69,359.8 308.31,381.66" fill="none" id="Permiso-backto-Vista" style="stroke:#181818;stroke-width:1;"/><polygon fill="none" points="347.98,305.42,341.6621,308.8963,342.441,316.0652,348.7589,312.5889,347.98,305.42" style="stroke:#181818;stroke-width:1;"/><text fill="#000000" font-family="sans-serif" font-size="13" lengthAdjust="spacing" textLength="38.9619" x="333.17" y="348.0669">utiliza</text></g><!--reverse link BaseDeDatos to Esquema--><g class="link" data-entity-1="BaseDeDatos" data-entity-2="Esquema" data-source-line="52" data-uid="lnk21" id="link_BaseDeDatos_Esquema"><path codeLine="52" d="M233.17,192.42 C233.17,214.31 233.17,234.8 233.17,256.66" fill="none" id="BaseDeDatos-backto-Esquema" style="stroke:#181818;stroke-width:1;"/><polygon fill="#181818" points="233.17,180.42,229.17,186.42,233.17,192.42,237.17,186.42,233.17,180.42" style="stroke:#181818;stroke-width:1;"/><text fill="#000000" font-family="sans-serif" font-size="13" lengthAdjust="spacing" textLength="56.2847" x="234.17" y="223.0669">contiene</text></g><!--reverse link Esquema to Vista--><g class="link" data-entity-1="Esquema" data-entity-2="Vista" data-source-line="53" data-uid="lnk22" id="link_Esquema_Vista"><path codeLine="53" d="M238.6438,317.1278 C241.2638,331.2178 243.61,337.4 251.17,352 C256.67,362.61 264.64,372.94 272.35,381.62" fill="none" id="Esquema-backto-Vista" style="stroke:#181818;stroke-width:1;"/><polygon fill="#181818" points="236.45,305.33,233.6143,311.9601,238.6438,317.1278,241.4795,310.4976,236.45,305.33" style="stroke:#181818;stroke-width:1;"/><text fill="#000000" font-family="sans-serif" font-size="13" lengthAdjust="spacing" textLength="56.2847" x="252.17" y="348.0669">contiene</text></g><!--link Permiso to OperacionPermiso--><g class="link" data-entity-1="Permiso" data-entity-2="OperacionPermiso" data-source-line="54" data-uid="lnk23" id="link_Permiso_OperacionPermiso"><path codeLine="54" d="M404.7,281 C424.64,281 448.79,281 471.72,281" fill="none" id="Permiso-OperacionPermiso" style="stroke:#181818;stroke-width:1;stroke-dasharray:7,7;"/><text fill="#000000" font-family="sans-serif" font-size="13" lengthAdjust="spacing" textLength="31.3511" x="422.7" y="274.0669">hace</text></g><!--reverse link Vista to Tabla--><g class="link" data-entity-1="Vista" data-entity-2="Tabla" data-source-line="55" data-uid="lnk24" id="link_Vista_Tabla"><path codeLine="55" d="M296.17,442.42 C296.17,464.31 296.17,484.8 296.17,506.66" fill="none" id="Vista-backto-Tabla" style="stroke:#181818;stroke-width:1;"/><polygon fill="none" points="296.17,430.42,292.17,436.42,296.17,442.42,300.17,436.42,296.17,430.42" style="stroke:#181818;stroke-width:1;"/><text fill="#000000" font-family="sans-serif" font-size="13" lengthAdjust="spacing" textLength="38.9619" x="297.17" y="473.0669">utiliza</text></g><!--reverse link Tabla to Trigger--><g class="link" data-entity-1="Tabla" data-entity-2="Trigger" data-source-line="56" data-uid="lnk25" id="link_Tabla_Trigger"><path codeLine="56" d="M248.602,538.1159 C193.372,545.7159 102.56,561.03 75.17,585 C61.64,596.84 54.86,616.26 51.47,631.64" fill="none" id="Tabla-backto-Trigger" style="stroke:#181818;stroke-width:1;"/><polygon fill="none" points="260.49,536.48,254.0007,533.3353,248.602,538.1159,255.0913,541.2606,260.49,536.48" style="stroke:#181818;stroke-width:1;"/><text fill="#000000" font-family="sans-serif" font-size="13" lengthAdjust="spacing" textLength="56.2847" x="76.17" y="598.0669">contiene</text></g><!--reverse link Tabla to Registro--><g class="link" data-entity-1="Tabla" data-entity-2="Registro" data-source-line="57" data-uid="lnk26" id="link_Tabla_Registro"><path codeLine="57" d="M250.298,556.1893 C221.558,573.0393 193.48,595.04 176.17,632 C157.05,672.81 173.95,726.29 186.83,756.51" fill="none" id="Tabla-backto-Registro" style="stroke:#181818;stroke-width:1;"/><polygon fill="none" points="260.65,550.12,253.4509,549.704,250.298,556.1893,257.4971,556.6053,260.65,550.12" style="stroke:#181818;stroke-width:1;"/><text fill="#000000" font-family="sans-serif" font-size="13" lengthAdjust="spacing" textLength="56.2847" x="177.17" y="660.5669">contiene</text></g><!--reverse link Tabla to Atributo--><g class="link" data-entity-1="Tabla" data-entity-2="Atributo" data-source-line="58" data-uid="lnk27" id="link_Tabla_Atributo"><path codeLine="58" d="M296.17,567.42 C296.17,589.31 296.17,609.8 296.17,631.66" fill="none" id="Tabla-backto-Atributo" style="stroke:#181818;stroke-width:1;"/><polygon fill="none" points="296.17,555.42,292.17,561.42,296.17,567.42,300.17,561.42,296.17,555.42" style="stroke:#181818;stroke-width:1;"/><text fill="#000000" font-family="sans-serif" font-size="13" lengthAdjust="spacing" textLength="56.2847" x="297.17" y="598.0669">contiene</text></g><!--reverse link Tabla to Constrain--><g class="link" data-entity-1="Tabla" data-entity-2="Constrain" data-source-line="59" data-uid="lnk28" id="link_Tabla_Constrain"><path codeLine="59" d="M336.6886,562.703 C348.0186,571.623 351.28,574.7 362.17,585 C377.73,599.71 393.87,617.7 405.91,631.75" fill="none" id="Tabla-backto-Constrain" style="stroke:#181818;stroke-width:1;"/><polygon fill="none" points="327.26,555.28,329.5,562.1344,336.6886,562.703,334.4486,555.8487,327.26,555.28" style="stroke:#181818;stroke-width:1;"/><text fill="#000000" font-family="sans-serif" font-size="13" lengthAdjust="spacing" textLength="56.2847" x="379.17" y="598.0669">contiene</text></g><!--reverse link Tabla to ForeignKey--><g class="link" data-entity-1="Tabla" data-entity-2="ForeignKey" data-source-line="60" data-uid="lnk29" id="link_Tabla_ForeignKey"><path codeLine="60" d="M343.3079,546.4098 C373.7479,556.0698 406.91,567.72 444.17,585 C473.56,598.63 505.21,617.08 528.76,631.62" fill="none" id="Tabla-backto-ForeignKey" style="stroke:#181818;stroke-width:1;"/><polygon fill="none" points="331.87,542.78,336.379,548.4075,343.3079,546.4098,338.7989,540.7823,331.87,542.78" style="stroke:#181818;stroke-width:1;"/></g><!--reverse link Atributo to TipoDeDato--><g class="link" data-entity-1="Atributo" data-entity-2="TipoDeDato" data-source-line="61" data-uid="lnk30" id="link_Atributo_TipoDeDato"><path codeLine="61" d="M293.4162,692.4512 C289.5962,739.8612 280.71,838.29 265.17,930 C263.51,939.77 261.2,950.44 259.04,959.63" fill="none" id="Atributo-backto-TipoDeDato" style="stroke:#181818;stroke-width:1;"/><polygon fill="none" points="294.38,680.49,289.911,686.1494,293.4162,692.4512,297.8852,686.7919,294.38,680.49" style="stroke:#181818;stroke-width:1;"/><text fill="#000000" font-family="sans-serif" font-size="13" lengthAdjust="spacing" textLength="56.2847" x="280.17" y="848.0669">contiene</text></g><!--link Registro to TipoDeDato--><g class="link" data-entity-1="Registro" data-entity-2="TipoDeDato" data-source-line="62" data-uid="lnk31" id="link_Registro_TipoDeDato"><path codeLine="62" d="M204.59,805.45 C215.18,844.18 236.22,921.07 246.79,959.7" fill="none" id="Registro-TipoDeDato" style="stroke:#181818;stroke-width:1;stroke-dasharray:7,7;"/><text fill="#000000" font-family="sans-serif" font-size="13" lengthAdjust="spacing" textLength="22.9785" x="231.17" y="895.0669">usa</text></g><!--reverse link Atributo to Registro--><g class="link" data-entity-1="Atributo" data-entity-2="Registro" data-source-line="63" data-uid="lnk32" id="link_Atributo_Registro"><path codeLine="63" d="M256.3855,688.2638 C246.3055,696.8738 244.65,699.34 236.17,710 C224.8,724.28 215.05,742.45 208.28,756.69" fill="none" id="Atributo-backto-Registro" style="stroke:#181818;stroke-width:1;"/><polygon fill="none" points="265.51,680.47,258.3498,681.3254,256.3855,688.2638,263.5457,687.4084,265.51,680.47" style="stroke:#181818;stroke-width:1;"/><text fill="#000000" font-family="sans-serif" font-size="13" lengthAdjust="spacing" textLength="32.9443" x="237.17" y="723.0669">tiene</text></g><!--reverse link ForeignKey to PrimaryKey--><g class="link" data-entity-1="ForeignKey" data-entity-2="PrimaryKey" data-source-line="64" data-uid="lnk33" id="link_ForeignKey_PrimaryKey"><path codeLine="64" d="M565.17,692.42 C565.17,714.31 565.17,734.8 565.17,756.66" fill="none" id="ForeignKey-backto-PrimaryKey" style="stroke:#181818;stroke-width:1;"/><polygon fill="none" points="565.17,680.42,561.17,686.42,565.17,692.42,569.17,686.42,565.17,680.42" style="stroke:#181818;stroke-width:1;"/></g><!--link PrimaryKey to Acciones--><g class="link" data-entity-1="PrimaryKey" data-entity-2="Acciones" data-source-line="65" data-uid="lnk34" id="link_PrimaryKey_Acciones"><path codeLine="65" d="M565.17,805.45 C565.17,844.18 565.17,921.07 565.17,959.7" fill="none" id="PrimaryKey-Acciones" style="stroke:#181818;stroke-width:1;stroke-dasharray:7,7;"/></g><!--SRC=[RL6xRiCm3Dpr5Pu3H1_GBMtQfKEB8ktE28HBm9OIIXxIelzUFIoPHho9TpoIkZC3UDzz-WcOtA_wKyfavCCDedf77ibB_ejy056Vu3p8-jbV9nmbyWWUZtY4uBn0tox8OCZP-nKdfhv7baTX7zUoR3e4flCKLZgwkB98W4_EHYMG5TYBOwJUlk9DVfLf1BwjmOD99s8vV3QhS_jzigbxw0AXHPNU2Pj_ql1Q9oxR5fafq40_e8GftIxoissnmpXRv1NQ2NaZwsojMTzv6Hk_mQ0gghG-foJMbpepnMmvUo6hxzjiZM2RRSPlqqi6git9zxGGfQuTehLUjqmUrWF4pKMxR2efjPpLyinpQzZ_]--></g></svg>